<?xml version="1.0" encoding="utf-8"?>
<!-- Generator: Adobe Illustrator 19.1.0, SVG Export Plug-In . SVG Version: 6.00 Build 0)  -->
<svg version="1.1" xmlns="http://www.w3.org/2000/svg" xmlns:xlink="http://www.w3.org/1999/xlink" x="0px" y="0px"
	 viewBox="0 0 864 168.6" style="enable-background:new 0 0 864 168.6;" xml:space="preserve">
<style type="text/css">
	.st0{fill:#FFFFFF;}
	.st1{fill:#C62032;}
	.st2{fill:#981E33;}
	.st3{fill:#2A3033;}
</style>
<g id="Layer_2">
</g>
<g id="Layer_1">
	<g>
		<g>
			<polygon class="st3" points="79.5,124.7 110.1,106.6 79.5,89.2 48.9,106.8 			"/>
		</g>
		<polygon class="st1" points="75.4,131.7 38.1,109.9 38.1,60.2 10,44 10,125.3 48.1,147.4 		"/>
		<polygon class="st2" points="146.8,45.3 120.9,60.2 120.9,110 83.7,131.7 111.2,147.4 146.8,126.7 		"/>
		<g>
			<polygon class="st3" points="218.9,1.7 169.5,30.4 196.3,46.2 218.9,32.9 247.5,49.7 274.8,33.6 			"/>
		</g>
		<g>
			<polygon class="st3" points="239,125 218.9,136.8 178.4,113 155.7,125.7 155.7,131.3 218.9,168 266.2,141 			"/>
		</g>
		<polygon class="st1" points="281.6,106.1 155.7,31.7 155.7,66.3 281.6,140.6 		"/>
		<g>
			<polygon class="st3" points="709,38.7 642,0.1 575,38.7 602.9,55 642.3,32.1 681,54.9 			"/>
		</g>
		<polygon class="st1" points="743.1,63.3 717.9,48.6 717.9,125.7 743.1,140.5 743.1,63.2 		"/>
		<polygon class="st2" points="825.9,63 825.9,140.2 854,124 854,46.9 		"/>
		<polygon class="st3" points="566.2,38.7 499.1,0.1 432.5,38.4 460.5,54.6 499.4,32.1 540.4,56.2 566.2,41.3 		"/>
		<polygon class="st2" points="683.8,63.1 683.8,108.6 646.5,130.3 646.5,162 709,125.7 709,48.6 		"/>
		<polygon class="st1" points="637.6,129.9 601,108.6 601,63.3 575,48.3 575,125.3 637.6,161.6 		"/>
		<polygon class="st2" points="542.4,107.9 503.8,130.4 503.8,162.1 566.2,125.8 566.2,122.6 		"/>
		<polygon class="st1" points="494.9,129.9 458.4,108.6 458.4,62.6 432.5,47.7 432.5,125.3 494.9,161.5 		"/>
		<polygon class="st2" points="399.2,60.2 399.2,108.2 362,129.9 362,161.5 423.7,125.7 423.7,46.1 		"/>
		<polygon class="st1" points="353.1,129.6 316.4,108.2 316.4,60.2 290.5,45.3 290.5,124.9 353.1,161.2 		"/>
		<g>
			<polygon class="st3" points="851.9,38.7 785,0.1 718,38.7 745.8,55 785.3,32.1 823.9,54.9 			"/>
		</g>
	</g>
</g>
</svg>
