<?xml version="1.0" encoding="UTF-8"?>
<svg version="1.1" viewBox="0 0 736.36 92.159" xml:space="preserve" xmlns="http://www.w3.org/2000/svg"><g transform="matrix(1.3333 0 0 -1.3333 319.7 -260.07)"><g transform="matrix(.4127 0 0 .4127 -211.14 -246.35)" fill="#fff"><path d="m0 0 30.513 18.002-30.485 17.441-30.521-17.576z" fill="#fff"/></g><g transform="matrix(.4127 0 0 .4127 -212.81 -249.22)"><path d="m0 0-37.256 21.714v49.557l-28.068 16.174v-81.131l38.002-22.047z" fill="#c20430"/></g><g transform="matrix(.4127 0 0 .4127 -183.44 -213.66)"><path d="m0 0-25.861-14.904v-49.65l-37.118-21.634 27.41-15.681 35.569 20.638z" fill="#9c182f"/></g><g transform="matrix(.4127 0 0 .4127 -153.78 -195.75)" fill="#fff"><path d="m0 0-49.229-28.562 26.741-15.768 22.547 13.238 28.547-16.787 27.148 16.116z" fill="#fff"/></g><g transform="matrix(.4127 0 0 .4127 -145.48 -246.47)" fill="#fff"><path d="m0 0-20.064-11.799-40.393 23.716-22.71-12.645v-5.585l63.044-36.578 47.229 26.907z" fill="#fff"/></g><g transform="matrix(.4127 0 0 .4127 -127.94 -238.72)"><path d="m0 0-125.65 74.289v-34.505l125.65-74.169z" fill="#c20430"/></g><g transform="matrix(.4127 0 0 .4127 47.993 -210.96)" fill="#fff"><path d="m0 0-66.812 38.558-66.828-38.567 27.826-16.226 39.305 22.788 38.575-22.7z" fill="#fff"/></g><g transform="matrix(.4127 0 0 .4127 62.02 -221.07)"><path d="m0 0-25.171 14.589v-76.876l25.189-14.722v77.04z" fill="#c20430"/></g><g transform="matrix(.4127 0 0 .4127 96.107 -220.96)"><path d="m0 0v-77.024l28.062 16.159v76.9z" fill="#9c182f"/></g><g transform="matrix(.4127 0 0 .4127 -10.796 -210.96)" fill="#fff"><path d="m0 0-66.94 38.559-66.432-38.268 27.965-16.175 38.773 22.438 40.858-23.997 25.776 14.899z" fill="#fff"/></g><g transform="matrix(.4127 0 0 .4127 37.595 -221.02)"><path d="m0 0v-45.319l-37.219-21.694v-31.585l62.412 36.21v76.879z" fill="#9c182f"/></g><g transform="matrix(.4127 0 0 .4127 18.596 -248.51)"><path d="m0 0-36.542 21.297v45.162l-25.861 15.006v-76.846l62.403-36.206z" fill="#c20430"/></g><g transform="matrix(.4127 0 0 .4127 -20.611 -239.43)"><path d="m0 0-38.495-22.463v-31.588l62.278 36.134v3.198z" fill="#9c182f"/></g><g transform="matrix(.4127 0 0 .4127 -40.137 -248.48)"><path d="m0 0-36.417 21.226v45.864l-25.86 14.912v-77.455l62.277-36.135z" fill="#c20430"/></g><g transform="matrix(.4127 0 0 .4127 -79.551 -219.81)"><path d="m0 0v-47.834l-37.122-21.638v-31.585l61.531 35.702v79.422z" fill="#9c182f"/></g><g transform="matrix(.4127 0 0 .4127 -98.51 -248.36)"><path d="m0 0-36.635 21.353v47.834l-25.864 14.904v-79.417l62.499-36.261z" fill="#c20430"/></g><g transform="matrix(.4127 0 0 .4127 106.82 -210.96)" fill="#fff"><path d="m0 0-66.812 38.558-66.828-38.567 27.826-16.226 39.305 22.788 38.575-22.7z" fill="#fff"/></g><flowRoot transform="matrix(.53449 0 0 -.53449 3.4548 200.9)" fill="#000000" font-family="AnjaliOldLipi" font-size="85.333px" letter-spacing="0px" text-align="end" text-anchor="end" word-spacing="0px" style="font-feature-settings:normal;font-variant-caps:normal;font-variant-ligatures:normal;font-variant-numeric:normal;line-height:1.25" xml:space="preserve"><flowRegion><rect x="152" y="410.57" width="340" height="118"/></flowRegion><flowPara/></flowRoot><g transform="matrix(.71266 0 0 .71266 -5.0971 8.1576)"><g transform="matrix(1.1582 -.70277 1.933 1.2116 799.97 25.026)"><rect transform="matrix(.85796 -.51372 -.86359 -.5042 0 0)" x="254.4" y="180.09" width="74.288" height="134.76" ry="7.927" fill="#25282a" stroke="#fff" stroke-width="1.1069"/><g transform="matrix(.53578 .30531 .74615 -.45847 -543.43 -176.25)" fill="#fff" style="font-feature-settings:normal;font-variant-caps:normal;font-variant-ligatures:normal;font-variant-numeric:normal" aria-label="2020"><path d="m315.2 519.05h38.88v-7.392h-16.128c-3.552 0-7.008 0.288-10.752 0.48 13.92-17.184 23.808-30.144 23.808-43.008 0-12-6.816-19.872-17.856-19.872-7.968 0-13.44 4.032-18.432 9.984l5.28 4.896c3.072-4.224 7.296-7.68 12.096-7.68 7.008 0 10.176 5.472 10.176 12.96 0 12-9.696 24.48-27.072 44.544z"/><path d="m382.69 520.2c11.232 0 18.912-11.904 18.912-35.808 0-23.808-7.68-35.04-18.912-35.04s-18.912 11.232-18.912 35.04c0 23.904 7.68 35.808 18.912 35.808zm0-7.104c-6.048 0-10.464-8.064-10.464-28.704 0-20.736 4.416-27.936 10.464-27.936s10.464 7.2 10.464 27.936c0 20.64-4.416 28.704-10.464 28.704z"/><path d="m411.2 519.05h38.88v-7.392h-16.128c-3.552 0-7.008 0.288-10.752 0.48 13.92-17.184 23.808-30.144 23.808-43.008 0-12-6.816-19.872-17.856-19.872-7.968 0-13.44 4.032-18.432 9.984l5.28 4.896c3.072-4.224 7.296-7.68 12.096-7.68 7.008 0 10.176 5.472 10.176 12.96 0 12-9.696 24.48-27.072 44.544z"/><path d="m478.69 520.2c11.232 0 18.912-11.904 18.912-35.808 0-23.808-7.68-35.04-18.912-35.04s-18.912 11.232-18.912 35.04c0 23.904 7.68 35.808 18.912 35.808zm0-7.104c-6.048 0-10.464-8.064-10.464-28.704 0-20.736 4.416-27.936 10.464-27.936s10.464 7.2 10.464 27.936c0 20.64-4.416 28.704-10.464 28.704z"/></g></g></g></g></svg>
