<?xml version="1.0" encoding="utf-8"?>
<!-- Generator: Adobe Illustrator 19.1.0, SVG Export Plug-In . SVG Version: 6.00 Build 0)  -->
<svg version="1.1" xmlns="http://www.w3.org/2000/svg" xmlns:xlink="http://www.w3.org/1999/xlink" x="0px" y="0px"
	 viewBox="0 0 864 168.6" style="enable-background:new 0 0 864 168.6;" xml:space="preserve">
<style type="text/css">
	.st0{fill:#FFFFFF;}
	.st1{fill:#C62032;}
	.st2{fill:#981E33;}
	.st3{fill:#2A3033;}
</style>
<g id="Layer_2">
</g>
<g id="Layer_1">
	<g>
		<g>
			<polygon class="st0" points="80,125 110.6,106.9 80,89.4 49.4,107.1 			"/>
		</g>
		<polygon class="st1" points="75.9,132 38.6,110.2 38.6,60.5 10.5,44.3 10.5,125.6 48.6,147.7 		"/>
		<polygon class="st2" points="147.3,45.6 121.4,60.5 121.4,110.3 84.2,132 111.6,147.7 147.3,127 		"/>
		<g>
			<polygon class="st0" points="219.3,2 170,30.7 196.8,46.5 219.4,33.2 248,50 275.2,33.9 			"/>
		</g>
		<g>
			<polygon class="st0" points="239.5,125.3 219.4,137.1 178.9,113.3 156.1,126 156.1,131.6 219.3,168.3 266.7,141.3 			"/>
		</g>
		<polygon class="st1" points="282.1,106.4 156.1,32 156.1,66.6 282.1,140.9 		"/>
		<g>
			<polygon class="st0" points="709.5,39 642.5,0.4 575.5,39 603.4,55.3 642.8,32.4 681.5,55.2 			"/>
		</g>
		<polygon class="st1" points="743.6,63.6 718.4,48.9 718.4,126 743.6,140.8 743.6,63.5 		"/>
		<polygon class="st2" points="826.4,63.3 826.4,140.5 854.5,124.3 854.5,47.2 		"/>
		<polygon class="st0" points="566.7,39 499.6,0.4 433,38.7 461,54.9 499.9,32.4 540.9,56.5 566.7,41.6 		"/>
		<polygon class="st2" points="684.3,63.4 684.3,108.9 646.9,130.6 646.9,162.3 709.5,126 709.5,48.9 		"/>
		<polygon class="st1" points="638.1,130.2 601.5,108.9 601.5,63.6 575.5,48.6 575.5,125.6 638.1,161.9 		"/>
		<polygon class="st2" points="542.9,108.2 504.3,130.7 504.3,162.4 566.7,126.1 566.7,122.9 		"/>
		<polygon class="st1" points="495.4,130.2 458.9,108.9 458.9,62.9 433,47.9 433,125.6 495.4,161.8 		"/>
		<polygon class="st2" points="399.7,60.5 399.7,108.5 362.5,130.1 362.5,161.8 424.1,126 424.1,46.4 		"/>
		<polygon class="st1" points="353.6,129.9 316.9,108.5 316.9,60.5 291,45.6 291,125.2 353.6,161.5 		"/>
		<g>
			<polygon class="st0" points="852.4,39 785.4,0.4 718.4,39 746.3,55.3 785.7,32.4 824.4,55.2 			"/>
		</g>
	</g>
</g>
</svg>
